<svg xmlns="http://www.w3.org/2000/svg" width="60" height="60" viewBox="0 0 60 60"><path d="M8.71 8.83C14.597 2.945 21.694 0 30 0s15.383 2.923 21.23 8.77C57.077 14.617 60 21.694 60 30c0 8.306-2.923 15.383-8.77 21.23C45.383 57.077 38.306 60 30 60c-8.306 0-15.383-2.923-21.23-8.77C2.923 45.383 0 38.306 0 30c0-8.306 2.903-15.363 8.71-21.17zm4.113 38.347C17.58 51.855 23.306 54.194 30 54.194c6.694 0 12.4-2.36 17.117-7.077 4.718-4.718 7.077-10.423 7.077-17.117 0-6.694-2.36-12.4-7.077-17.117C42.399 8.165 36.694 5.806 30 5.806c-6.694 0-12.4 2.36-17.117 7.077C8.165 17.601 5.806 23.306 5.806 30c0 6.694 2.34 12.42 7.017 17.177zM37.5 41.613l-10.282-7.5c-.403-.323-.605-.726-.605-1.21V13.065c0-.968.484-1.452 1.452-1.452h3.87c.968 0 1.452.484 1.452 1.452v17.177l8.105 5.806c.726.565.806 1.25.242 2.057l-2.178 3.145c-.564.806-1.25.927-2.056.363z" fill="#EBECEF" fill-rule="evenodd"></path></svg>