<svg xmlns="http://www.w3.org/2000/svg" width="69" height="60" viewBox="0 0 69 60"><path d="M67.788.385c.626.446.94 1.037.94 1.773v47.117c0 .446-.124.848-.37 1.205-.246.357-.57.613-.973.77l-21.477 8.566a1.854 1.854 0 01-1.611 0l-20.672-8.232-20.672 8.232a1.788 1.788 0 01-.805.167c-.425 0-.828-.122-1.208-.368C.313 59.17 0 58.578 0 57.842V10.725c0-.446.123-.848.37-1.205.245-.357.57-.613.972-.77L22.82.185a1.854 1.854 0 011.61 0l20.672 8.232L65.774.184c.716-.29 1.387-.223 2.014.2zM24.545 4.909v42.487l19.091 7.695V12.604l-19.09-7.695zM4.364 12.153v42.392l18-7.243V4.909l-18 7.244zm60 35.694V5.455l-18 7.243v42.393l18-7.244z" fill="#EBECEF" fill-rule="evenodd"></path></svg>