<svg xmlns="http://www.w3.org/2000/svg" width="60" height="60" viewBox="0 0 60 60"><path d="M58.242 42.422C59.414 42.89 60 43.75 60 45c0 .234-.04.43-.117.586L57.07 57.773c-.078.391-.254.762-.527 1.114a2.881 2.881 0 01-.996.82 2.6 2.6 0 01-1.172.293c-15 0-27.812-5.312-38.438-15.938C5.313 33.438 0 20.625 0 5.626c0-.39.098-.781.293-1.172.195-.39.469-.723.82-.996.352-.273.723-.45 1.114-.527L14.414.117C14.57.04 14.766 0 15 0c1.25 0 2.11.586 2.578 1.758l5.625 13.125c.156.312.235.664.235 1.055 0 .859-.352 1.601-1.055 2.226l-7.031 5.742c1.796 3.907 4.726 7.89 8.789 11.953 4.062 4.063 8.046 6.993 11.953 8.79l5.742-7.032c.625-.703 1.367-1.054 2.227-1.054.39 0 .742.078 1.054.234l13.125 5.625z" fill="#EBECEF" fill-rule="evenodd"></path></svg>