<svg xmlns="http://www.w3.org/2000/svg" width="990" height="510" viewBox="0 0 990 510"><g fill="#D3E8F1" fill-rule="nonzero"><path d="M969.981 126.972c29.298 39.937 20.781 106.839 9.88 180.909-10.902 73.728-24.188 154.625-71.542 186.028-47.694 31.403-129.455 13.312-195.205-23.894-65.75-37.205-115.488-93.526-125.367-153.942-9.54-60.417 21.121-124.588 64.387-167.938 43.265-43.008 98.795-64.854 160.457-69.291 61.32-4.437 128.433 8.192 157.39 48.128z" opacity=".505"></path><path d="M275.63 35.142c21.03 28.658 14.917 76.667 7.092 129.819-7.826 52.907-17.363 110.958-51.354 133.492-34.236 22.535-92.926 9.553-140.123-17.146C44.05 254.61 8.345 214.194 1.254 170.84c-6.847-43.354 15.161-89.403 46.218-120.51C78.53 19.466 118.39 3.789 162.652.606c44.017-3.185 92.192 5.878 112.978 34.536z" opacity=".355"></path></g></svg>